:SAMPLES-PER-SECOND 30
:FULLY-SPECIFIED
:DEGREES
681
root  13.6568 37.4662 -0.066004 158.872 73.7052 169.683
RightUpLeg  -18.5747 -16.5679 -11.8717
RightLeg  30.7555 6.20275 3.75527
RightFoot  -8.79975 -0.31078 11.4722
RightToes  5.82063e-011 0 -3.6325e-017
Spine  20.9542 1.45283 -2.82504
Spine1  9.38515 0.351547 2.33623
HEad  -36.4885 16.5752 -17.7021
LeftShoulder1  0.963129 0.184636 -22.694
LeftArm  -11.2079 -35.6693 -45.5766
LeftForeArm  3.67109 -65.1411 -25.2343
LeftHand  -0.0625011 6.7958 -1.82004
RightShoulder  0.45222 -1.59238 17.2617
RightArm  -23.1807 27.7528 17.6301
RightForeArm  -17.1107 68.9794 34.1849
RightHand  -0.310456 2.67033 -4.691
LeftUpLeg  -5.37102 4.61686 3.23735
LeftLeg  33.4353 -3.25736 -1.94598
LeftFoot  -15.075 -0.0194875 -3.39032
LeftToes  1.68253e-010 -3.2327e-011 -2.69673e-012
682
root  13.2471 37.6102 0.411139 162.355 68.7604 172.972
RightUpLeg  -17.7946 -11.6777 -11.5705
RightLeg  36.342 9.76173 7.39854
RightFoot  -11.5138 -0.058552 13.6663
RightToes  5.82063e-011 0 -3.6325e-017
Spine  21.3314 1.50233 -3.19438
Spine1  8.93353 0.307049 2.21286
HEad  -37.5873 16.6754 -17.4945
LeftShoulder1  0.934288 0.289415 -22.7472
LeftArm  -11.7172 -34.9115 -45.2922
LeftForeArm  3.61606 -65.3861 -25.5756
LeftHand  -0.043959 6.27093 -1.19921
RightShoulder  0.460169 -1.56835 17.4022
RightArm  -22.7471 28.5028 18.0306
RightForeArm  -17.6309 68.6444 33.5187
RightHand  -0.308327 2.65069 -4.66561
LeftUpLeg  -6.73159 1.94181 3.22983
LeftLeg  31.8729 -5.50186 -3.3167
LeftFoot  -13.0934 0.0230468 -3.56787
LeftToes  1.68253e-010 -3.2327e-011 -2.69673e-012
683
root  12.9304 37.7123 0.952138 164.44 63.7678 174.965
RightUpLeg  -16.5052 -7.05834 -10.348
RightLeg  41.2472 13.7835 12.3803
RightFoot  -13.854 0.256857 15.85
RightToes  5.82063e-011 0 -3.6325e-017
Spine  21.3627 1.81994 -3.34258
Spine1  9.02289 0.613737 2.02744
HEad  -38.5871 16.8728 -17.4022
LeftShoulder1  1.01196 0.00827654 -22.6253
LeftArm  -11.8571 -34.5236 -45.5211
LeftForeArm  4.40759 -65.6127 -25.7954
LeftHand  -0.0522645 6.8539 -1.52833
RightShoulder  0.41489 -1.78542 17.8309
RightArm  -22.8784 28.5619 17.7203
RightForeArm  -16.7473 68.8613 33.8962
RightHand  -0.27983 2.99834 -4.08821
LeftUpLeg  -7.94982 -0.224429 3.39204
LeftLeg  30.4191 -8.11943 -4.76898
LeftFoot  -11.0504 0.0766902 -3.71929
LeftToes  1.68253e-010 -3.2327e-011 -2.69673e-012
684
root  12.6681 37.7265 1.50419 165.079 57.9458 175.425
RightUpLeg  -14.6921 -3.57223 -9.09569
RightLeg  45.3376 17.2297 17.5481
RightFoot  -16.0335 0.639749 18.1817
RightToes  5.82063e-011 0 -3.6325e-017
Spine  21.7253 1.91379 -4.25802
Spine1  8.75643 0.393225 2.40088
HEad  -39.9054 17.5972 -17.8057
LeftShoulder1  0.98948 0.113364 -22.8705
LeftArm  -11.8759 -34.245 -45.4244
LeftForeArm  4.75194 -65.9223 -26.1952
LeftHand  -0.0426913 6.50934 -1.22448
RightShoulder  0.427404 -1.71919 17.6036
RightArm  -22.9983 28.2321 17.6129
RightForeArm  -16.1405 69.2752 34.7411
RightHand  -0.318859 3.48605 -4.4171
LeftUpLeg  -9.2943 -2.89121 2.81054
LeftLeg  29.2029 -10.8655 -6.164
LeftFoot  -9.40299 0.134516 -4.64579
LeftToes  1.68253e-010 -3.2327e-011 -2.69673e-012
685
root  12.4962 37.6738 2.08687 165.622 52.2119 175.468
RightUpLeg  -12.7737 -1.05756 -7.21743
RightLeg  47.6043 19.4691 21.1144
RightFoot  -16.4279 0.778424 19.9258
RightToes  5.82063e-011 0 -3.6325e-017
Spine  21.1392 2.07697 -5.09716
Spine1  9.56267 0.349821 2.50744
HEad  -41.0036 18.075 -18.2929
LeftShoulder1  1.01466 0.0252722 -22.8556
LeftArm  -12.0501 -34.3425 -45.4938
LeftForeArm  5.07427 -66.1994 -26.5632
LeftHand  -0.0370458 6.3421 -0.599179
RightShoulder  0.414565 -1.75317 17.326
RightArm  -23.5762 27.8628 17.1554
RightForeArm  -14.889 69.717 35.6386
RightHand  -0.215375 3.66231 -3.01632
LeftUpLeg  -10.9041 -4.52885 2.32229
LeftLeg  28.2887 -14.489 -7.97078
LeftFoot  -8.09685 0.219355 -6.00308
LeftToes  1.68253e-010 -3.2327e-011 -2.69673e-012
